<mxfile host="app.diagrams.net" agent="Mozilla/5.0 (X11; Linux x86_64; rv:139.0) Gecko/20100101 Firefox/139.0" version="27.1.6">
  <diagram name="Page-1" id="jghVutcg889kITLHIS19">
    <mxGraphModel dx="923" dy="570" grid="1" gridSize="10" guides="0" tooltips="1" connect="1" arrows="1" fold="1" page="1" pageScale="1" pageWidth="670" pageHeight="843" math="0" shadow="0">
      <root>
        <mxCell id="0" />
        <mxCell id="1" parent="0" />
        <mxCell id="UFBe6iV6Lmv1jtnLhpm9-11" value="&lt;p style=&quot;margin:0px;margin-top:6px;text-align:center;&quot;&gt;&lt;b&gt;Backend&lt;/b&gt;&lt;/p&gt;&lt;hr size=&quot;1&quot; style=&quot;border-style:solid;&quot;&gt;" style="align=left;overflow=fill;html=1;dropTarget=0;whiteSpace=wrap;fillColor=none;" parent="1" vertex="1">
          <mxGeometry x="90" y="5" width="490" height="835" as="geometry" />
        </mxCell>
        <mxCell id="UFBe6iV6Lmv1jtnLhpm9-12" value="" style="shape=component;jettyWidth=8;jettyHeight=4;fillColor=none;" parent="UFBe6iV6Lmv1jtnLhpm9-11" vertex="1">
          <mxGeometry x="1" width="20" height="20" relative="1" as="geometry">
            <mxPoint x="-24" y="4" as="offset" />
          </mxGeometry>
        </mxCell>
        <mxCell id="UFBe6iV6Lmv1jtnLhpm9-92" value="&lt;p style=&quot;margin:0px;margin-top:6px;text-align:center;&quot;&gt;&lt;b&gt;Processing&lt;/b&gt;&lt;/p&gt;&lt;hr size=&quot;1&quot; style=&quot;border-style:solid;&quot;&gt;" style="align=left;overflow=fill;html=1;dropTarget=0;whiteSpace=wrap;fillColor=none;" parent="1" vertex="1">
          <mxGeometry x="100" y="40" width="470" height="550" as="geometry" />
        </mxCell>
        <mxCell id="UFBe6iV6Lmv1jtnLhpm9-93" value="" style="shape=component;jettyWidth=8;jettyHeight=4;fillColor=none;" parent="UFBe6iV6Lmv1jtnLhpm9-92" vertex="1">
          <mxGeometry x="1" width="20" height="20" relative="1" as="geometry">
            <mxPoint x="-24" y="4" as="offset" />
          </mxGeometry>
        </mxCell>
        <mxCell id="UFBe6iV6Lmv1jtnLhpm9-43" style="edgeStyle=orthogonalEdgeStyle;rounded=0;orthogonalLoop=1;jettySize=auto;html=1;exitX=1.011;exitY=0.2;exitDx=0;exitDy=0;entryX=0;entryY=0.5;entryDx=0;entryDy=0;exitPerimeter=0;dashed=1;" parent="1" source="UFBe6iV6Lmv1jtnLhpm9-25" target="UFBe6iV6Lmv1jtnLhpm9-27" edge="1">
          <mxGeometry relative="1" as="geometry" />
        </mxCell>
        <mxCell id="UFBe6iV6Lmv1jtnLhpm9-55" style="edgeStyle=orthogonalEdgeStyle;rounded=0;orthogonalLoop=1;jettySize=auto;html=1;entryX=0;entryY=0.5;entryDx=0;entryDy=0;dashed=1;exitX=1.001;exitY=0.46;exitDx=0;exitDy=0;exitPerimeter=0;" parent="1" source="UFBe6iV6Lmv1jtnLhpm9-25" target="UFBe6iV6Lmv1jtnLhpm9-46" edge="1">
          <mxGeometry relative="1" as="geometry" />
        </mxCell>
        <mxCell id="UFBe6iV6Lmv1jtnLhpm9-56" style="edgeStyle=orthogonalEdgeStyle;rounded=0;orthogonalLoop=1;jettySize=auto;html=1;entryX=0;entryY=0.25;entryDx=0;entryDy=0;exitX=0.994;exitY=0.539;exitDx=0;exitDy=0;exitPerimeter=0;dashed=1;" parent="1" source="UFBe6iV6Lmv1jtnLhpm9-25" target="UFBe6iV6Lmv1jtnLhpm9-48" edge="1">
          <mxGeometry relative="1" as="geometry" />
        </mxCell>
        <mxCell id="UFBe6iV6Lmv1jtnLhpm9-57" style="edgeStyle=orthogonalEdgeStyle;rounded=0;orthogonalLoop=1;jettySize=auto;html=1;entryX=0;entryY=0.5;entryDx=0;entryDy=0;exitX=0.986;exitY=0.66;exitDx=0;exitDy=0;exitPerimeter=0;dashed=1;" parent="1" source="UFBe6iV6Lmv1jtnLhpm9-25" target="UFBe6iV6Lmv1jtnLhpm9-52" edge="1">
          <mxGeometry relative="1" as="geometry" />
        </mxCell>
        <mxCell id="UFBe6iV6Lmv1jtnLhpm9-65" style="edgeStyle=orthogonalEdgeStyle;rounded=0;orthogonalLoop=1;jettySize=auto;html=1;entryX=0;entryY=0.75;entryDx=0;entryDy=0;dashed=1;exitX=0.998;exitY=0.859;exitDx=0;exitDy=0;exitPerimeter=0;" parent="1" source="UFBe6iV6Lmv1jtnLhpm9-25" target="UFBe6iV6Lmv1jtnLhpm9-61" edge="1">
          <mxGeometry relative="1" as="geometry" />
        </mxCell>
        <mxCell id="UFBe6iV6Lmv1jtnLhpm9-69" style="edgeStyle=orthogonalEdgeStyle;rounded=0;orthogonalLoop=1;jettySize=auto;html=1;entryX=0;entryY=0.5;entryDx=0;entryDy=0;exitX=0.987;exitY=0.94;exitDx=0;exitDy=0;exitPerimeter=0;dashed=1;" parent="1" source="UFBe6iV6Lmv1jtnLhpm9-25" target="UFBe6iV6Lmv1jtnLhpm9-63" edge="1">
          <mxGeometry relative="1" as="geometry" />
        </mxCell>
        <mxCell id="UFBe6iV6Lmv1jtnLhpm9-91" style="edgeStyle=orthogonalEdgeStyle;rounded=0;orthogonalLoop=1;jettySize=auto;html=1;entryX=0.5;entryY=0;entryDx=0;entryDy=0;dashed=1;exitX=0.5;exitY=1;exitDx=0;exitDy=0;" parent="1" source="UFBe6iV6Lmv1jtnLhpm9-25" target="UFBe6iV6Lmv1jtnLhpm9-34" edge="1">
          <mxGeometry relative="1" as="geometry">
            <Array as="points">
              <mxPoint x="150" y="580" />
              <mxPoint x="150" y="610" />
              <mxPoint x="335" y="610" />
            </Array>
          </mxGeometry>
        </mxCell>
        <mxCell id="UFBe6iV6Lmv1jtnLhpm9-25" value="&lt;b&gt;Processing&lt;/b&gt;" style="html=1;dropTarget=0;whiteSpace=wrap;fillColor=none;" parent="1" vertex="1">
          <mxGeometry x="110" y="80" width="80" height="500" as="geometry" />
        </mxCell>
        <mxCell id="UFBe6iV6Lmv1jtnLhpm9-26" value="" style="shape=module;jettyWidth=8;jettyHeight=4;fillColor=none;" parent="UFBe6iV6Lmv1jtnLhpm9-25" vertex="1">
          <mxGeometry x="1" width="20" height="20" relative="1" as="geometry">
            <mxPoint x="-27" y="7" as="offset" />
          </mxGeometry>
        </mxCell>
        <mxCell id="UFBe6iV6Lmv1jtnLhpm9-27" value="&lt;p style=&quot;margin:0px;margin-top:6px;text-align:center;&quot;&gt;&lt;b&gt;Preprocessing&lt;/b&gt;&lt;/p&gt;&lt;hr size=&quot;1&quot; style=&quot;border-style:solid;&quot;&gt;" style="align=left;overflow=fill;html=1;dropTarget=0;whiteSpace=wrap;fillColor=none;shadow=0;" parent="1" vertex="1">
          <mxGeometry x="250" y="80" width="310" height="200" as="geometry" />
        </mxCell>
        <mxCell id="UFBe6iV6Lmv1jtnLhpm9-28" value="" style="shape=component;jettyWidth=8;jettyHeight=4;fillColor=none;" parent="UFBe6iV6Lmv1jtnLhpm9-27" vertex="1">
          <mxGeometry x="1" width="20" height="20" relative="1" as="geometry">
            <mxPoint x="-24" y="4" as="offset" />
          </mxGeometry>
        </mxCell>
        <mxCell id="UFBe6iV6Lmv1jtnLhpm9-29" value="Converter" style="html=1;dropTarget=0;whiteSpace=wrap;fillColor=none;" parent="1" vertex="1">
          <mxGeometry x="260" y="120" width="290" height="50" as="geometry" />
        </mxCell>
        <mxCell id="UFBe6iV6Lmv1jtnLhpm9-30" value="" style="shape=module;jettyWidth=8;jettyHeight=4;fillColor=none;" parent="UFBe6iV6Lmv1jtnLhpm9-29" vertex="1">
          <mxGeometry x="1" width="20" height="20" relative="1" as="geometry">
            <mxPoint x="-27" y="7" as="offset" />
          </mxGeometry>
        </mxCell>
        <mxCell id="UFBe6iV6Lmv1jtnLhpm9-31" value="&lt;div&gt;Front-&lt;/div&gt;&lt;div&gt;end&lt;/div&gt;" style="html=1;dropTarget=0;whiteSpace=wrap;fillColor=none;" parent="1" vertex="1">
          <mxGeometry width="50" height="840" as="geometry" />
        </mxCell>
        <mxCell id="UFBe6iV6Lmv1jtnLhpm9-32" value="" style="shape=module;jettyWidth=8;jettyHeight=4;fillColor=none;" parent="UFBe6iV6Lmv1jtnLhpm9-31" vertex="1">
          <mxGeometry x="1" width="20" height="20" relative="1" as="geometry">
            <mxPoint x="-27" y="7" as="offset" />
          </mxGeometry>
        </mxCell>
        <mxCell id="UFBe6iV6Lmv1jtnLhpm9-34" value="&lt;p style=&quot;margin:0px;margin-top:6px;text-align:center;&quot;&gt;&lt;b&gt;Enricher&lt;/b&gt;&lt;/p&gt;&lt;hr size=&quot;1&quot; style=&quot;border-style:solid;&quot;&gt;" style="align=left;overflow=fill;html=1;dropTarget=0;whiteSpace=wrap;fillColor=none;" parent="1" vertex="1">
          <mxGeometry x="100" y="640" width="470" height="190" as="geometry" />
        </mxCell>
        <mxCell id="UFBe6iV6Lmv1jtnLhpm9-35" value="" style="shape=component;jettyWidth=8;jettyHeight=4;fillColor=none;" parent="UFBe6iV6Lmv1jtnLhpm9-34" vertex="1">
          <mxGeometry x="1" width="20" height="20" relative="1" as="geometry">
            <mxPoint x="-24" y="4" as="offset" />
          </mxGeometry>
        </mxCell>
        <mxCell id="UFBe6iV6Lmv1jtnLhpm9-37" value="&lt;div&gt;Inlining of&lt;/div&gt;&lt;div&gt;Constants&lt;/div&gt;" style="html=1;dropTarget=0;whiteSpace=wrap;fillColor=none;" parent="1" vertex="1">
          <mxGeometry x="410" y="180" width="140" height="40" as="geometry" />
        </mxCell>
        <mxCell id="UFBe6iV6Lmv1jtnLhpm9-38" value="" style="shape=module;jettyWidth=8;jettyHeight=4;fillColor=none;" parent="UFBe6iV6Lmv1jtnLhpm9-37" vertex="1">
          <mxGeometry x="1" width="20" height="20" relative="1" as="geometry">
            <mxPoint x="-27" y="7" as="offset" />
          </mxGeometry>
        </mxCell>
        <mxCell id="UFBe6iV6Lmv1jtnLhpm9-39" value="Renaming" style="html=1;dropTarget=0;whiteSpace=wrap;fillColor=none;" parent="1" vertex="1">
          <mxGeometry x="260" y="180" width="140" height="40" as="geometry" />
        </mxCell>
        <mxCell id="UFBe6iV6Lmv1jtnLhpm9-40" value="" style="shape=module;jettyWidth=8;jettyHeight=4;fillColor=none;" parent="UFBe6iV6Lmv1jtnLhpm9-39" vertex="1">
          <mxGeometry x="1" width="20" height="20" relative="1" as="geometry">
            <mxPoint x="-27" y="7" as="offset" />
          </mxGeometry>
        </mxCell>
        <mxCell id="UFBe6iV6Lmv1jtnLhpm9-41" value="IO Parser" style="html=1;dropTarget=0;whiteSpace=wrap;fillColor=none;" parent="1" vertex="1">
          <mxGeometry x="260" y="230" width="140" height="40" as="geometry" />
        </mxCell>
        <mxCell id="UFBe6iV6Lmv1jtnLhpm9-42" value="" style="shape=module;jettyWidth=8;jettyHeight=4;fillColor=none;" parent="UFBe6iV6Lmv1jtnLhpm9-41" vertex="1">
          <mxGeometry x="1" width="20" height="20" relative="1" as="geometry">
            <mxPoint x="-27" y="7" as="offset" />
          </mxGeometry>
        </mxCell>
        <mxCell id="UFBe6iV6Lmv1jtnLhpm9-44" value="Size Casting" style="html=1;dropTarget=0;whiteSpace=wrap;fillColor=none;" parent="1" vertex="1">
          <mxGeometry x="410" y="230" width="140" height="40" as="geometry" />
        </mxCell>
        <mxCell id="UFBe6iV6Lmv1jtnLhpm9-45" value="" style="shape=module;jettyWidth=8;jettyHeight=4;fillColor=none;" parent="UFBe6iV6Lmv1jtnLhpm9-44" vertex="1">
          <mxGeometry x="1" width="20" height="20" relative="1" as="geometry">
            <mxPoint x="-27" y="7" as="offset" />
          </mxGeometry>
        </mxCell>
        <mxCell id="UFBe6iV6Lmv1jtnLhpm9-46" value="Optimization" style="html=1;dropTarget=0;whiteSpace=wrap;fillColor=none;" parent="1" vertex="1">
          <mxGeometry x="250" y="290" width="310" height="40" as="geometry" />
        </mxCell>
        <mxCell id="UFBe6iV6Lmv1jtnLhpm9-47" value="" style="shape=module;jettyWidth=8;jettyHeight=4;fillColor=none;" parent="UFBe6iV6Lmv1jtnLhpm9-46" vertex="1">
          <mxGeometry x="1" width="20" height="20" relative="1" as="geometry">
            <mxPoint x="-27" y="7" as="offset" />
          </mxGeometry>
        </mxCell>
        <mxCell id="UFBe6iV6Lmv1jtnLhpm9-48" value="Merging" style="html=1;dropTarget=0;whiteSpace=wrap;fillColor=none;" parent="1" vertex="1">
          <mxGeometry x="250" y="340" width="310" height="40" as="geometry" />
        </mxCell>
        <mxCell id="UFBe6iV6Lmv1jtnLhpm9-49" value="" style="shape=module;jettyWidth=8;jettyHeight=4;fillColor=none;" parent="UFBe6iV6Lmv1jtnLhpm9-48" vertex="1">
          <mxGeometry x="1" width="20" height="20" relative="1" as="geometry">
            <mxPoint x="-27" y="7" as="offset" />
          </mxGeometry>
        </mxCell>
        <mxCell id="UFBe6iV6Lmv1jtnLhpm9-52" value="Postprocessing" style="html=1;dropTarget=0;whiteSpace=wrap;fillColor=none;" parent="1" vertex="1">
          <mxGeometry x="250" y="390" width="310" height="40" as="geometry" />
        </mxCell>
        <mxCell id="UFBe6iV6Lmv1jtnLhpm9-53" value="" style="shape=module;jettyWidth=8;jettyHeight=4;fillColor=none;" parent="UFBe6iV6Lmv1jtnLhpm9-52" vertex="1">
          <mxGeometry x="1" width="20" height="20" relative="1" as="geometry">
            <mxPoint x="-27" y="7" as="offset" />
          </mxGeometry>
        </mxCell>
        <mxCell id="UFBe6iV6Lmv1jtnLhpm9-60" value="nested" style="shape=folder;fontStyle=1;spacingTop=10;tabWidth=40;tabHeight=14;tabPosition=left;html=1;whiteSpace=wrap;verticalAlign=top;align=left;fillColor=none;" parent="1" vertex="1">
          <mxGeometry x="250" y="440" width="300" height="140" as="geometry" />
        </mxCell>
        <mxCell id="UFBe6iV6Lmv1jtnLhpm9-67" style="edgeStyle=orthogonalEdgeStyle;rounded=0;orthogonalLoop=1;jettySize=auto;html=1;exitX=0;exitY=0.25;exitDx=0;exitDy=0;dashed=1;" parent="1" source="UFBe6iV6Lmv1jtnLhpm9-61" edge="1">
          <mxGeometry relative="1" as="geometry">
            <mxPoint x="250" y="370" as="targetPoint" />
            <Array as="points">
              <mxPoint x="220" y="490" />
              <mxPoint x="220" y="370" />
            </Array>
          </mxGeometry>
        </mxCell>
        <mxCell id="UFBe6iV6Lmv1jtnLhpm9-61" value="If-Then-Else" style="html=1;dropTarget=0;whiteSpace=wrap;fillColor=none;" parent="1" vertex="1">
          <mxGeometry x="280" y="480" width="260" height="40" as="geometry" />
        </mxCell>
        <mxCell id="UFBe6iV6Lmv1jtnLhpm9-62" value="" style="shape=module;jettyWidth=8;jettyHeight=4;fillColor=none;" parent="UFBe6iV6Lmv1jtnLhpm9-61" vertex="1">
          <mxGeometry x="1" width="20" height="20" relative="1" as="geometry">
            <mxPoint x="-27" y="7" as="offset" />
          </mxGeometry>
        </mxCell>
        <mxCell id="UFBe6iV6Lmv1jtnLhpm9-63" value="Repeat" style="html=1;dropTarget=0;whiteSpace=wrap;fillColor=none;" parent="1" vertex="1">
          <mxGeometry x="280" y="530" width="260" height="40" as="geometry" />
        </mxCell>
        <mxCell id="UFBe6iV6Lmv1jtnLhpm9-64" value="" style="shape=module;jettyWidth=8;jettyHeight=4;fillColor=none;" parent="UFBe6iV6Lmv1jtnLhpm9-63" vertex="1">
          <mxGeometry x="1" width="20" height="20" relative="1" as="geometry">
            <mxPoint x="-27" y="7" as="offset" />
          </mxGeometry>
        </mxCell>
        <mxCell id="UFBe6iV6Lmv1jtnLhpm9-66" style="edgeStyle=orthogonalEdgeStyle;rounded=0;orthogonalLoop=1;jettySize=auto;html=1;exitX=0;exitY=0.5;exitDx=0;exitDy=0;entryX=0.998;entryY=0.84;entryDx=0;entryDy=0;entryPerimeter=0;dashed=1;" parent="1" source="UFBe6iV6Lmv1jtnLhpm9-61" target="UFBe6iV6Lmv1jtnLhpm9-25" edge="1">
          <mxGeometry relative="1" as="geometry" />
        </mxCell>
        <mxCell id="UFBe6iV6Lmv1jtnLhpm9-70" value="&lt;b&gt;Enricher&lt;/b&gt;" style="html=1;dropTarget=0;whiteSpace=wrap;fillColor=none;" parent="1" vertex="1">
          <mxGeometry x="300" y="680" width="70" height="140" as="geometry" />
        </mxCell>
        <mxCell id="UFBe6iV6Lmv1jtnLhpm9-71" value="" style="shape=module;jettyWidth=8;jettyHeight=4;fillColor=none;" parent="UFBe6iV6Lmv1jtnLhpm9-70" vertex="1">
          <mxGeometry x="1" width="20" height="20" relative="1" as="geometry">
            <mxPoint x="-27" y="7" as="offset" />
          </mxGeometry>
        </mxCell>
        <mxCell id="UFBe6iV6Lmv1jtnLhpm9-72" value="Literals" style="html=1;dropTarget=0;whiteSpace=wrap;fillColor=none;" parent="1" vertex="1">
          <mxGeometry x="110" y="680" width="140" height="40" as="geometry" />
        </mxCell>
        <mxCell id="UFBe6iV6Lmv1jtnLhpm9-73" value="" style="shape=module;jettyWidth=8;jettyHeight=4;fillColor=none;" parent="UFBe6iV6Lmv1jtnLhpm9-72" vertex="1">
          <mxGeometry x="1" width="20" height="20" relative="1" as="geometry">
            <mxPoint x="-27" y="7" as="offset" />
          </mxGeometry>
        </mxCell>
        <mxCell id="UFBe6iV6Lmv1jtnLhpm9-74" value="Merger" style="html=1;dropTarget=0;whiteSpace=wrap;fillColor=none;" parent="1" vertex="1">
          <mxGeometry x="110" y="730" width="140" height="40" as="geometry" />
        </mxCell>
        <mxCell id="UFBe6iV6Lmv1jtnLhpm9-75" value="" style="shape=module;jettyWidth=8;jettyHeight=4;fillColor=none;" parent="UFBe6iV6Lmv1jtnLhpm9-74" vertex="1">
          <mxGeometry x="1" width="20" height="20" relative="1" as="geometry">
            <mxPoint x="-27" y="7" as="offset" />
          </mxGeometry>
        </mxCell>
        <mxCell id="UFBe6iV6Lmv1jtnLhpm9-76" value="Splitter" style="html=1;dropTarget=0;whiteSpace=wrap;fillColor=none;" parent="1" vertex="1">
          <mxGeometry x="110" y="780" width="140" height="40" as="geometry" />
        </mxCell>
        <mxCell id="UFBe6iV6Lmv1jtnLhpm9-77" value="" style="shape=module;jettyWidth=8;jettyHeight=4;fillColor=none;" parent="UFBe6iV6Lmv1jtnLhpm9-76" vertex="1">
          <mxGeometry x="1" width="20" height="20" relative="1" as="geometry">
            <mxPoint x="-27" y="7" as="offset" />
          </mxGeometry>
        </mxCell>
        <mxCell id="UFBe6iV6Lmv1jtnLhpm9-80" value="Gates" style="html=1;dropTarget=0;whiteSpace=wrap;fillColor=none;" parent="1" vertex="1">
          <mxGeometry x="420" y="680" width="140" height="40" as="geometry" />
        </mxCell>
        <mxCell id="UFBe6iV6Lmv1jtnLhpm9-81" value="" style="shape=module;jettyWidth=8;jettyHeight=4;fillColor=none;" parent="UFBe6iV6Lmv1jtnLhpm9-80" vertex="1">
          <mxGeometry x="1" width="20" height="20" relative="1" as="geometry">
            <mxPoint x="-27" y="7" as="offset" />
          </mxGeometry>
        </mxCell>
        <mxCell id="UFBe6iV6Lmv1jtnLhpm9-82" value="Database" style="html=1;dropTarget=0;whiteSpace=wrap;fillColor=none;" parent="1" vertex="1">
          <mxGeometry x="420" y="730" width="140" height="90" as="geometry" />
        </mxCell>
        <mxCell id="UFBe6iV6Lmv1jtnLhpm9-83" value="" style="shape=module;jettyWidth=8;jettyHeight=4;fillColor=none;" parent="UFBe6iV6Lmv1jtnLhpm9-82" vertex="1">
          <mxGeometry x="1" width="20" height="20" relative="1" as="geometry">
            <mxPoint x="-27" y="7" as="offset" />
          </mxGeometry>
        </mxCell>
        <mxCell id="UFBe6iV6Lmv1jtnLhpm9-94" value="" style="rounded=0;orthogonalLoop=1;jettySize=auto;html=1;endArrow=halfCircle;endFill=0;endSize=6;strokeWidth=1;sketch=0;exitX=1;exitY=0.5;exitDx=0;exitDy=0;" parent="1" source="UFBe6iV6Lmv1jtnLhpm9-31" edge="1">
          <mxGeometry relative="1" as="geometry">
            <mxPoint x="60" y="430" as="sourcePoint" />
            <mxPoint x="70" y="420" as="targetPoint" />
          </mxGeometry>
        </mxCell>
        <mxCell id="UFBe6iV6Lmv1jtnLhpm9-95" value="" style="rounded=0;orthogonalLoop=1;jettySize=auto;html=1;endArrow=oval;endFill=0;sketch=0;sourcePerimeterSpacing=0;targetPerimeterSpacing=0;endSize=10;exitX=-0.001;exitY=0.497;exitDx=0;exitDy=0;exitPerimeter=0;" parent="1" source="UFBe6iV6Lmv1jtnLhpm9-11" edge="1">
          <mxGeometry relative="1" as="geometry">
            <mxPoint x="360" y="535" as="sourcePoint" />
            <mxPoint x="70" y="420" as="targetPoint" />
          </mxGeometry>
        </mxCell>
        <mxCell id="UFBe6iV6Lmv1jtnLhpm9-96" value="" style="ellipse;whiteSpace=wrap;html=1;align=center;aspect=fixed;fillColor=none;strokeColor=none;resizable=0;perimeter=centerPerimeter;rotatable=0;allowArrows=0;points=[];outlineConnect=1;" parent="1" vertex="1">
          <mxGeometry x="370" y="550" width="10" height="10" as="geometry" />
        </mxCell>
        <mxCell id="UFBe6iV6Lmv1jtnLhpm9-98" value="" style="rounded=0;orthogonalLoop=1;jettySize=auto;html=1;endArrow=halfCircle;endFill=0;endSize=6;strokeWidth=1;sketch=0;exitX=0;exitY=0.144;exitDx=0;exitDy=0;exitPerimeter=0;entryX=0.479;entryY=0.265;entryDx=0;entryDy=0;entryPerimeter=0;" parent="1" source="UFBe6iV6Lmv1jtnLhpm9-70" target="UFBe6iV6Lmv1jtnLhpm9-100" edge="1">
          <mxGeometry relative="1" as="geometry">
            <mxPoint x="310" y="705" as="sourcePoint" />
          </mxGeometry>
        </mxCell>
        <mxCell id="UFBe6iV6Lmv1jtnLhpm9-99" value="" style="rounded=0;orthogonalLoop=1;jettySize=auto;html=1;endArrow=oval;endFill=0;sketch=0;sourcePerimeterSpacing=0;targetPerimeterSpacing=0;endSize=10;exitX=1;exitY=0.5;exitDx=0;exitDy=0;entryX=0.503;entryY=0.867;entryDx=0;entryDy=0;entryPerimeter=0;" parent="1" source="UFBe6iV6Lmv1jtnLhpm9-72" target="UFBe6iV6Lmv1jtnLhpm9-100" edge="1">
          <mxGeometry relative="1" as="geometry">
            <mxPoint x="270" y="705" as="sourcePoint" />
          </mxGeometry>
        </mxCell>
        <mxCell id="UFBe6iV6Lmv1jtnLhpm9-100" value="" style="ellipse;whiteSpace=wrap;html=1;align=center;aspect=fixed;fillColor=none;strokeColor=none;resizable=0;perimeter=centerPerimeter;rotatable=0;allowArrows=0;points=[];outlineConnect=1;" parent="1" vertex="1">
          <mxGeometry x="270" y="695" width="10" height="10" as="geometry" />
        </mxCell>
        <mxCell id="UFBe6iV6Lmv1jtnLhpm9-101" value="" style="rounded=0;orthogonalLoop=1;jettySize=auto;html=1;endArrow=halfCircle;endFill=0;endSize=6;strokeWidth=1;sketch=0;exitX=0;exitY=0.5;exitDx=0;exitDy=0;" parent="1" source="UFBe6iV6Lmv1jtnLhpm9-70" target="UFBe6iV6Lmv1jtnLhpm9-103" edge="1">
          <mxGeometry relative="1" as="geometry">
            <mxPoint x="300" y="750" as="sourcePoint" />
          </mxGeometry>
        </mxCell>
        <mxCell id="UFBe6iV6Lmv1jtnLhpm9-102" value="" style="rounded=0;orthogonalLoop=1;jettySize=auto;html=1;endArrow=oval;endFill=0;sketch=0;sourcePerimeterSpacing=0;targetPerimeterSpacing=0;endSize=10;exitX=1;exitY=0.5;exitDx=0;exitDy=0;" parent="1" source="UFBe6iV6Lmv1jtnLhpm9-74" target="UFBe6iV6Lmv1jtnLhpm9-103" edge="1">
          <mxGeometry relative="1" as="geometry">
            <mxPoint x="270" y="745" as="sourcePoint" />
          </mxGeometry>
        </mxCell>
        <mxCell id="UFBe6iV6Lmv1jtnLhpm9-103" value="" style="ellipse;whiteSpace=wrap;html=1;align=center;aspect=fixed;fillColor=none;strokeColor=none;resizable=0;perimeter=centerPerimeter;rotatable=0;allowArrows=0;points=[];outlineConnect=1;" parent="1" vertex="1">
          <mxGeometry x="270" y="745" width="10" height="10" as="geometry" />
        </mxCell>
        <mxCell id="UFBe6iV6Lmv1jtnLhpm9-104" value="" style="rounded=0;orthogonalLoop=1;jettySize=auto;html=1;endArrow=halfCircle;endFill=0;endSize=6;strokeWidth=1;sketch=0;exitX=-0.004;exitY=0.858;exitDx=0;exitDy=0;exitPerimeter=0;" parent="1" source="UFBe6iV6Lmv1jtnLhpm9-70" target="UFBe6iV6Lmv1jtnLhpm9-106" edge="1">
          <mxGeometry relative="1" as="geometry">
            <mxPoint x="300" y="800" as="sourcePoint" />
          </mxGeometry>
        </mxCell>
        <mxCell id="UFBe6iV6Lmv1jtnLhpm9-105" value="" style="rounded=0;orthogonalLoop=1;jettySize=auto;html=1;endArrow=oval;endFill=0;sketch=0;sourcePerimeterSpacing=0;targetPerimeterSpacing=0;endSize=10;exitX=1;exitY=0.5;exitDx=0;exitDy=0;" parent="1" source="UFBe6iV6Lmv1jtnLhpm9-76" target="UFBe6iV6Lmv1jtnLhpm9-106" edge="1">
          <mxGeometry relative="1" as="geometry">
            <mxPoint x="260" y="800" as="sourcePoint" />
          </mxGeometry>
        </mxCell>
        <mxCell id="UFBe6iV6Lmv1jtnLhpm9-106" value="" style="ellipse;whiteSpace=wrap;html=1;align=center;aspect=fixed;fillColor=none;strokeColor=none;resizable=0;perimeter=centerPerimeter;rotatable=0;allowArrows=0;points=[];outlineConnect=1;" parent="1" vertex="1">
          <mxGeometry x="270" y="795" width="10" height="10" as="geometry" />
        </mxCell>
        <mxCell id="UFBe6iV6Lmv1jtnLhpm9-107" value="" style="rounded=0;orthogonalLoop=1;jettySize=auto;html=1;endArrow=halfCircle;endFill=0;endSize=6;strokeWidth=1;sketch=0;exitX=0.998;exitY=0.716;exitDx=0;exitDy=0;exitPerimeter=0;" parent="1" source="UFBe6iV6Lmv1jtnLhpm9-70" target="UFBe6iV6Lmv1jtnLhpm9-109" edge="1">
          <mxGeometry relative="1" as="geometry">
            <mxPoint x="420" y="795" as="sourcePoint" />
          </mxGeometry>
        </mxCell>
        <mxCell id="UFBe6iV6Lmv1jtnLhpm9-108" value="" style="rounded=0;orthogonalLoop=1;jettySize=auto;html=1;endArrow=oval;endFill=0;sketch=0;sourcePerimeterSpacing=0;targetPerimeterSpacing=0;endSize=10;exitX=-0.002;exitY=0.556;exitDx=0;exitDy=0;exitPerimeter=0;" parent="1" source="UFBe6iV6Lmv1jtnLhpm9-82" target="UFBe6iV6Lmv1jtnLhpm9-109" edge="1">
          <mxGeometry relative="1" as="geometry">
            <mxPoint x="380" y="795" as="sourcePoint" />
          </mxGeometry>
        </mxCell>
        <mxCell id="UFBe6iV6Lmv1jtnLhpm9-109" value="" style="ellipse;whiteSpace=wrap;html=1;align=center;aspect=fixed;fillColor=none;strokeColor=none;resizable=0;perimeter=centerPerimeter;rotatable=0;allowArrows=0;points=[];outlineConnect=1;" parent="1" vertex="1">
          <mxGeometry x="390" y="775" width="10" height="10" as="geometry" />
        </mxCell>
        <mxCell id="UFBe6iV6Lmv1jtnLhpm9-110" value="" style="rounded=0;orthogonalLoop=1;jettySize=auto;html=1;endArrow=halfCircle;endFill=0;endSize=6;strokeWidth=1;sketch=0;exitX=1;exitY=0.144;exitDx=0;exitDy=0;exitPerimeter=0;" parent="1" source="UFBe6iV6Lmv1jtnLhpm9-70" target="UFBe6iV6Lmv1jtnLhpm9-112" edge="1">
          <mxGeometry relative="1" as="geometry">
            <mxPoint x="430" y="695" as="sourcePoint" />
          </mxGeometry>
        </mxCell>
        <mxCell id="UFBe6iV6Lmv1jtnLhpm9-111" value="" style="rounded=0;orthogonalLoop=1;jettySize=auto;html=1;endArrow=oval;endFill=0;sketch=0;sourcePerimeterSpacing=0;targetPerimeterSpacing=0;endSize=10;exitX=0;exitY=0.5;exitDx=0;exitDy=0;" parent="1" source="UFBe6iV6Lmv1jtnLhpm9-80" target="UFBe6iV6Lmv1jtnLhpm9-112" edge="1">
          <mxGeometry relative="1" as="geometry">
            <mxPoint x="390" y="695" as="sourcePoint" />
          </mxGeometry>
        </mxCell>
        <mxCell id="UFBe6iV6Lmv1jtnLhpm9-112" value="" style="ellipse;whiteSpace=wrap;html=1;align=center;aspect=fixed;fillColor=none;strokeColor=none;resizable=0;perimeter=centerPerimeter;rotatable=0;allowArrows=0;points=[];outlineConnect=1;" parent="1" vertex="1">
          <mxGeometry x="390" y="695" width="10" height="10" as="geometry" />
        </mxCell>
        <mxCell id="UFBe6iV6Lmv1jtnLhpm9-113" value="" style="shape=datastore;whiteSpace=wrap;html=1;" parent="1" vertex="1">
          <mxGeometry x="600" y="750" width="60" height="60" as="geometry" />
        </mxCell>
        <mxCell id="UFBe6iV6Lmv1jtnLhpm9-114" style="edgeStyle=orthogonalEdgeStyle;rounded=0;orthogonalLoop=1;jettySize=auto;html=1;entryX=-0.017;entryY=0.429;entryDx=0;entryDy=0;entryPerimeter=0;dashed=1;" parent="1" source="UFBe6iV6Lmv1jtnLhpm9-82" target="UFBe6iV6Lmv1jtnLhpm9-113" edge="1">
          <mxGeometry relative="1" as="geometry" />
        </mxCell>
      </root>
    </mxGraphModel>
  </diagram>
</mxfile>
